<mxfile host="65bd71144e">
    <diagram name="Page-1" id="mIagn70UMWClvTQfJvGJ">
        <mxGraphModel dx="793" dy="346" grid="1" gridSize="10" guides="1" tooltips="1" connect="1" arrows="1" fold="1" page="1" pageScale="1" pageWidth="1100" pageHeight="850" math="0" shadow="0">
            <root>
                <mxCell id="0"/>
                <mxCell id="1" parent="0"/>
                <mxCell id="ms5gtQqLJfWnj4HZqytW-11" style="edgeStyle=orthogonalEdgeStyle;rounded=0;orthogonalLoop=1;jettySize=auto;html=1;exitX=1;exitY=0.5;exitDx=0;exitDy=0;strokeColor=#000000;" parent="1" source="ms5gtQqLJfWnj4HZqytW-7" target="ms5gtQqLJfWnj4HZqytW-10" edge="1">
                    <mxGeometry relative="1" as="geometry"/>
                </mxCell>
                <mxCell id="2" style="edgeStyle=none;html=1;exitX=0.5;exitY=1;exitDx=0;exitDy=0;strokeColor=#000000;entryX=0.526;entryY=0.093;entryDx=0;entryDy=0;entryPerimeter=0;" edge="1" parent="1" source="ms5gtQqLJfWnj4HZqytW-7" target="ms5gtQqLJfWnj4HZqytW-14">
                    <mxGeometry relative="1" as="geometry">
                        <mxPoint x="350" y="810" as="targetPoint"/>
                        <Array as="points">
                            <mxPoint x="190" y="800"/>
                            <mxPoint x="665" y="800"/>
                        </Array>
                    </mxGeometry>
                </mxCell>
                <mxCell id="ms5gtQqLJfWnj4HZqytW-7" value="" style="rounded=0;whiteSpace=wrap;html=1;fillColor=none;strokeColor=#000000;" parent="1" vertex="1">
                    <mxGeometry x="170" y="540" width="40" height="200" as="geometry"/>
                </mxCell>
                <mxCell id="ms5gtQqLJfWnj4HZqytW-13" style="edgeStyle=orthogonalEdgeStyle;rounded=0;orthogonalLoop=1;jettySize=auto;html=1;entryX=0;entryY=0.5;entryDx=0;entryDy=0;strokeColor=#000000;" parent="1" source="ms5gtQqLJfWnj4HZqytW-10" target="ms5gtQqLJfWnj4HZqytW-12" edge="1">
                    <mxGeometry relative="1" as="geometry"/>
                </mxCell>
                <mxCell id="ms5gtQqLJfWnj4HZqytW-10" value="" style="verticalLabelPosition=bottom;verticalAlign=top;html=1;shape=mxgraph.basic.polygon;polyCoords=[[0,0],[0.55,0.1],[1,0.2],[1,0.8],[0.55,0.9],[0,1],[0,0.75],[0,0.25]];polyline=0;fillColor=none;strokeColor=#000000;" parent="1" vertex="1">
                    <mxGeometry x="250" y="540" width="200" height="200" as="geometry"/>
                </mxCell>
                <mxCell id="ms5gtQqLJfWnj4HZqytW-12" value="" style="rounded=0;whiteSpace=wrap;html=1;fillColor=none;strokeColor=#000000;" parent="1" vertex="1">
                    <mxGeometry x="490" y="580" width="40" height="120" as="geometry"/>
                </mxCell>
                <mxCell id="ms5gtQqLJfWnj4HZqytW-14" value="" style="verticalLabelPosition=bottom;verticalAlign=top;html=1;shape=mxgraph.basic.polygon;polyCoords=[[0,0],[0.55,0.1],[1,0.2],[1,0.8],[0.55,0.9],[0,1],[0,0.75],[0,0.25]];polyline=0;direction=west;strokeColor=#000000;fillColor=none;" parent="1" vertex="1">
                    <mxGeometry x="570" y="540" width="200" height="200" as="geometry"/>
                </mxCell>
                <mxCell id="ms5gtQqLJfWnj4HZqytW-15" style="edgeStyle=orthogonalEdgeStyle;rounded=0;orthogonalLoop=1;jettySize=auto;html=1;entryX=1.004;entryY=0.504;entryDx=0;entryDy=0;entryPerimeter=0;strokeColor=#000000;" parent="1" source="ms5gtQqLJfWnj4HZqytW-12" target="ms5gtQqLJfWnj4HZqytW-14" edge="1">
                    <mxGeometry relative="1" as="geometry"/>
                </mxCell>
                <mxCell id="ms5gtQqLJfWnj4HZqytW-27" style="edgeStyle=orthogonalEdgeStyle;rounded=0;orthogonalLoop=1;jettySize=auto;html=1;entryX=0;entryY=0.5;entryDx=0;entryDy=0;fillColor=#d5e8d4;strokeColor=#000000;" parent="1" source="ms5gtQqLJfWnj4HZqytW-16" target="ms5gtQqLJfWnj4HZqytW-17" edge="1">
                    <mxGeometry relative="1" as="geometry"/>
                </mxCell>
                <mxCell id="ms5gtQqLJfWnj4HZqytW-16" value="Protein Sequence&lt;div&gt;[eg: DEVTIHLGDKTIR...]&lt;/div&gt;" style="text;html=1;align=center;verticalAlign=middle;whiteSpace=wrap;rounded=0;fillColor=none;strokeColor=#000000;" parent="1" vertex="1">
                    <mxGeometry x="380" y="425" width="140" height="30" as="geometry"/>
                </mxCell>
                <mxCell id="ms5gtQqLJfWnj4HZqytW-30" style="edgeStyle=orthogonalEdgeStyle;rounded=0;orthogonalLoop=1;jettySize=auto;html=1;entryX=0;entryY=0.5;entryDx=0;entryDy=0;strokeColor=#000000;" parent="1" source="ms5gtQqLJfWnj4HZqytW-17" target="ms5gtQqLJfWnj4HZqytW-7" edge="1">
                    <mxGeometry relative="1" as="geometry">
                        <Array as="points">
                            <mxPoint x="760" y="440"/>
                            <mxPoint x="760" y="520"/>
                            <mxPoint x="120" y="520"/>
                            <mxPoint x="120" y="640"/>
                        </Array>
                    </mxGeometry>
                </mxCell>
                <mxCell id="ms5gtQqLJfWnj4HZqytW-17" value="ESM Batch Converter" style="shape=process;whiteSpace=wrap;html=1;backgroundOutline=1;strokeColor=#000000;fillColor=none;" parent="1" vertex="1">
                    <mxGeometry x="600" y="410" width="120" height="60" as="geometry"/>
                </mxCell>
                <mxCell id="ms5gtQqLJfWnj4HZqytW-18" value="" style="ellipse;whiteSpace=wrap;html=1;aspect=fixed;fillColor=none;strokeColor=#000000;" parent="1" vertex="1">
                    <mxGeometry x="175" y="550" width="30" height="30" as="geometry"/>
                </mxCell>
                <mxCell id="ms5gtQqLJfWnj4HZqytW-19" value="" style="ellipse;whiteSpace=wrap;html=1;aspect=fixed;fillColor=none;strokeColor=#000000;" parent="1" vertex="1">
                    <mxGeometry x="175" y="700" width="30" height="30" as="geometry"/>
                </mxCell>
                <mxCell id="ms5gtQqLJfWnj4HZqytW-20" value="" style="ellipse;whiteSpace=wrap;html=1;aspect=fixed;fillColor=none;strokeColor=#000000;" parent="1" vertex="1">
                    <mxGeometry x="175" y="600" width="30" height="30" as="geometry"/>
                </mxCell>
                <mxCell id="ms5gtQqLJfWnj4HZqytW-21" value="" style="ellipse;whiteSpace=wrap;html=1;aspect=fixed;fillColor=none;strokeColor=#000000;" parent="1" vertex="1">
                    <mxGeometry x="175" y="650" width="30" height="30" as="geometry"/>
                </mxCell>
                <mxCell id="ms5gtQqLJfWnj4HZqytW-22" value="&lt;font style=&quot;font-size: 16px;&quot;&gt;&lt;b&gt;ESM Encoder&lt;/b&gt;&lt;/font&gt;&lt;div style=&quot;font-size: 10px;&quot;&gt;&lt;font style=&quot;font-size: 10px;&quot;&gt;[facebook/esm2_t6_8M_UR50D]&lt;/font&gt;&lt;/div&gt;&lt;div style=&quot;font-size: 10px;&quot;&gt;&lt;font style=&quot;font-size: 10px;&quot;&gt;[facebook/esm2_t33_650M_UR50D]&lt;/font&gt;&lt;/div&gt;&lt;div style=&quot;font-size: 10px;&quot;&gt;&lt;font style=&quot;font-size: 10px;&quot;&gt;[facebook/esm2_t48_15B_UR50D]&lt;/font&gt;&lt;/div&gt;" style="text;html=1;align=center;verticalAlign=middle;whiteSpace=wrap;rounded=0;strokeColor=none;" parent="1" vertex="1">
                    <mxGeometry x="255" y="620" width="190" height="30" as="geometry"/>
                </mxCell>
                <mxCell id="ms5gtQqLJfWnj4HZqytW-29" style="edgeStyle=orthogonalEdgeStyle;rounded=0;orthogonalLoop=1;jettySize=auto;html=1;entryX=0;entryY=0.5;entryDx=0;entryDy=0;strokeColor=#000000;" parent="1" source="ms5gtQqLJfWnj4HZqytW-23" target="ms5gtQqLJfWnj4HZqytW-28" edge="1">
                    <mxGeometry relative="1" as="geometry"/>
                </mxCell>
                <mxCell id="ms5gtQqLJfWnj4HZqytW-23" value="&lt;font style=&quot;font-size: 16px;&quot;&gt;&lt;b&gt;NRG Decoder&lt;/b&gt;&lt;/font&gt;&lt;div style=&quot;font-size: 10px;&quot;&gt;&lt;font style=&quot;font-size: 10px;&quot;&gt;[Multiple Transformer Layer followed by Fully connected Layers] [600M]&lt;/font&gt;&lt;/div&gt;" style="text;html=1;align=center;verticalAlign=middle;whiteSpace=wrap;rounded=0;strokeColor=none;" parent="1" vertex="1">
                    <mxGeometry x="575" y="620" width="190" height="30" as="geometry"/>
                </mxCell>
                <mxCell id="ms5gtQqLJfWnj4HZqytW-24" value="" style="ellipse;whiteSpace=wrap;html=1;aspect=fixed;fillColor=none;strokeColor=#000000;" parent="1" vertex="1">
                    <mxGeometry x="495" y="625" width="30" height="30" as="geometry"/>
                </mxCell>
                <mxCell id="ms5gtQqLJfWnj4HZqytW-25" value="" style="ellipse;whiteSpace=wrap;html=1;aspect=fixed;fillColor=none;strokeColor=#000000;" parent="1" vertex="1">
                    <mxGeometry x="495" y="590" width="30" height="30" as="geometry"/>
                </mxCell>
                <mxCell id="ms5gtQqLJfWnj4HZqytW-26" value="" style="ellipse;whiteSpace=wrap;html=1;aspect=fixed;fillColor=none;strokeColor=#000000;" parent="1" vertex="1">
                    <mxGeometry x="495" y="660" width="30" height="30" as="geometry"/>
                </mxCell>
                <mxCell id="ms5gtQqLJfWnj4HZqytW-28" value="Energy Values&lt;div&gt;[eg: 1.51, 0.73, -0.55]&lt;/div&gt;" style="rounded=0;whiteSpace=wrap;html=1;fillColor=none;strokeColor=#000000;" parent="1" vertex="1">
                    <mxGeometry x="810" y="605" width="120" height="60" as="geometry"/>
                </mxCell>
                <mxCell id="ms5gtQqLJfWnj4HZqytW-32" value="Protein Structure Representation" style="text;html=1;align=center;verticalAlign=middle;whiteSpace=wrap;rounded=0;strokeColor=#000000;" parent="1" vertex="1">
                    <mxGeometry x="460" y="710" width="100" height="30" as="geometry"/>
                </mxCell>
                <mxCell id="ms5gtQqLJfWnj4HZqytW-33" value="Tokenize" style="text;html=1;align=center;verticalAlign=middle;whiteSpace=wrap;rounded=0;" parent="1" vertex="1">
                    <mxGeometry x="740" y="470" width="100" height="30" as="geometry"/>
                </mxCell>
            </root>
        </mxGraphModel>
    </diagram>
</mxfile>